<?xml version="1.0" standalone="no"?>
<!DOCTYPE svg PUBLIC "-//W3C//DTD SVG 20010904//EN"
 "http://www.w3.org/TR/2001/REC-SVG-20010904/DTD/svg10.dtd">
<svg version="1.0" xmlns="http://www.w3.org/2000/svg"
 width="700.000000pt" height="700.000000pt" viewBox="0 0 700.000000 700.000000"
 preserveAspectRatio="xMidYMid meet">
<metadata>
Created by potrace 1.14, written by Peter Selinger 2001-2017
</metadata>
<g transform="translate(0.000000,700.000000) scale(0.100000,-0.100000)"
fill="#000000" stroke="none">
<path d="M3045 6638 c-387 -63 -680 -155 -1000 -315 -93 -46 -177 -91 -186
-99 -8 -8 -19 -14 -23 -14 -16 0 -269 -175 -376 -260 -131 -105 -365 -336
-460 -457 -126 -158 -318 -492 -405 -703 -66 -162 -151 -428 -169 -530 -2 -14
-7 -36 -10 -50 -6 -27 -11 -52 -26 -150 -6 -36 -12 -74 -14 -86 -20 -114 -28
-559 -13 -717 52 -549 223 -1008 574 -1538 48 -74 90 -138 92 -144 2 -5 7 -12
10 -15 4 -3 18 -21 31 -40 75 -111 146 -195 268 -318 168 -168 240 -231 452
-396 31 -24 166 -111 193 -125 15 -7 27 -18 27 -23 0 -5 5 -6 10 -3 6 3 10 2
10 -4 0 -5 10 -13 23 -17 12 -4 24 -10 27 -14 3 -3 25 -16 50 -29 25 -12 60
-31 78 -41 17 -11 32 -16 32 -12 0 4 7 -1 14 -11 8 -10 16 -18 18 -17 1 0 19
-5 38 -12 19 -7 38 -11 43 -10 4 1 7 -3 7 -8 0 -6 5 -10 10 -10 9 0 62 -22
125 -52 12 -5 27 -10 35 -12 8 -2 28 -8 43 -14 16 -7 30 -12 32 -12 2 0 16 -5
32 -11 15 -7 35 -13 43 -15 8 -1 38 -10 65 -18 28 -9 51 -16 53 -16 1 0 3 0 5
-1 3 -1 25 -6 57 -14 14 -3 37 -7 52 -10 14 -2 36 -8 47 -15 15 -7 21 -7 21 0
0 7 6 8 19 1 10 -6 39 -13 63 -16 23 -2 61 -7 83 -10 22 -2 62 -7 88 -9 26 -3
51 -7 55 -10 4 -2 14 1 23 7 18 14 18 -6 18 602 0 590 -2 737 -12 753 -5 6 -5
12 0 12 8 0 8 54 0 123 -3 20 -1 40 4 43 5 3 6 10 3 16 -4 6 -8 83 -10 172
-12 632 -14 670 -40 761 -8 28 -14 55 -14 60 -1 6 -8 20 -16 33 -8 12 -12 22
-10 22 6 0 -71 154 -94 190 -9 14 -58 87 -109 163 l-92 138 60 59 c33 33 57
60 54 60 -3 0 6 11 21 25 14 13 26 28 26 33 0 5 6 15 14 21 15 13 99 147 103
165 1 6 14 39 28 74 14 34 27 77 29 96 2 18 6 38 10 44 4 6 9 55 12 109 3 54
7 104 9 111 3 6 0 12 -6 12 -6 0 -7 5 -3 11 7 13 11 122 19 674 7 401 7 423
-1 448 -3 9 -1 17 4 17 5 0 7 12 5 28 -2 15 -3 45 -2 67 0 22 1 46 0 53 -2 22
-2 36 0 107 2 39 -1 76 -5 83 -4 7 -4 17 0 24 10 16 11 88 1 88 -4 0 -5 5 -1
11 10 16 13 99 3 93 -5 -3 -5 6 0 19 5 13 5 30 1 37 -5 8 -4 22 1 32 7 12 6
18 -1 18 -6 0 -8 5 -5 11 6 9 10 125 5 139 -6 18 -7 40 -2 40 4 0 7 16 7 35 0
19 -3 35 -7 35 -4 0 -3 12 1 28 5 15 6 36 4 47 -2 11 -4 36 -4 55 -1 19 -6 41
-11 48 -6 6 -7 12 -3 12 5 0 -2 8 -13 19 -12 10 -19 21 -15 25 3 3 2 6 -3 6
-5 0 -18 16 -28 35 -10 19 -23 32 -28 29 -5 -3 -8 -2 -7 3 4 12 -23 63 -33 63
-4 0 -7 3 -5 8 1 4 -7 19 -19 34 -22 28 -27 29 -109 16z m-563 -1255 c0 -26
-3 -167 -7 -313 -4 -146 -9 -395 -10 -555 -1 -159 -5 -306 -9 -325 -20 -103
-125 -234 -226 -283 -62 -30 -76 -32 -215 -23 -137 8 -284 14 -520 22 -110 3
-203 8 -207 10 -6 4 1 35 37 184 2 8 4 15 5 15 1 0 3 7 5 15 2 8 13 39 24 68
12 28 18 52 15 52 -3 0 2 7 11 16 9 9 14 22 11 30 -3 7 -2 14 2 16 4 2 29 48
56 103 27 55 57 111 66 125 9 14 45 67 79 118 34 52 66 99 72 105 5 7 30 39
57 71 26 33 58 72 72 86 14 15 49 52 78 83 29 31 55 57 56 57 2 0 24 19 48 43
63 59 119 107 125 107 3 0 22 14 42 30 57 49 61 51 61 44 0 -3 9 4 20 17 10
13 19 20 20 15 0 -4 15 3 33 16 30 24 128 77 144 79 5 1 17 7 27 15 26 18 28
14 28 -43z m-1000 -2417 c65 -3 122 -7 128 -11 5 -3 10 -2 10 4 0 5 8 8 18 6
9 -2 17 -4 17 -5 0 -1 21 -3 48 -4 28 -1 47 2 47 8 0 8 3 8 8 1 4 -6 64 -11
142 -12 125 -1 412 -11 453 -15 9 -1 17 -6 17 -10 0 -4 3 -7 8 -6 14 3 80 -31
85 -45 5 -13 -2 -1149 -7 -1247 -2 -30 -4 -81 -5 -113 -1 -67 7 -65 -136 -20
-215 69 -418 202 -618 406 -113 116 -176 200 -236 317 -78 152 -126 277 -172
450 -13 50 -14 52 -24 171 l-7 86 31 26 c20 16 39 24 54 21 12 -2 75 -6 139
-8z"/>
<path d="M3737 6354 c4 -292 4 -2488 0 -4603 -2 -992 1 -1245 11 -1249 6 -2
10 -8 6 -13 -3 -5 0 -9 5 -9 6 0 11 -7 11 -15 0 -8 5 -15 12 -15 6 0 8 -3 5
-6 -4 -4 3 -15 15 -25 11 -11 18 -19 14 -19 -6 0 1 -10 30 -43 6 -7 15 -23 18
-35 4 -12 11 -22 14 -22 4 0 16 -16 26 -35 10 -19 22 -32 26 -30 9 5 109 17
157 19 18 1 33 4 33 7 0 3 10 5 23 4 12 -1 26 0 32 3 5 3 21 7 35 8 29 3 77
11 105 18 11 3 43 11 70 17 28 6 54 15 59 20 6 5 17 9 25 9 8 0 42 13 75 30
l61 29 -2 53 c-2 29 -5 136 -7 238 -3 102 -8 277 -12 390 -9 282 -12 1270 -4
1295 4 11 4 29 0 40 -4 11 -5 24 -2 30 3 5 7 41 9 80 3 104 13 263 19 320 5
56 12 117 13 125 1 3 19 5 41 4 23 0 43 3 46 8 3 5 12 4 20 -3 8 -6 14 -8 14
-3 0 10 80 12 490 13 243 1 452 -4 529 -11 13 -1 12 -25 -4 -113 -25 -131
-131 -366 -240 -530 -22 -33 -41 -66 -43 -74 -9 -41 -9 -971 -1 -971 6 0 8 -4
5 -8 -3 -5 4 -14 14 -22 10 -8 17 -17 14 -22 -3 -4 2 -11 10 -14 9 -3 14 -10
11 -14 -3 -4 2 -13 10 -20 8 -7 15 -18 15 -26 0 -7 10 -20 23 -29 12 -8 20
-18 18 -21 -4 -7 11 -31 45 -70 l20 -25 27 27 c15 15 27 24 27 21 0 -8 110 94
159 147 20 22 48 52 63 68 15 15 25 28 22 28 -4 0 4 9 17 20 13 10 21 19 17
20 -5 0 8 16 27 37 19 20 32 40 30 44 -3 4 2 10 11 13 8 3 13 10 10 14 -3 5 4
14 14 22 10 8 17 17 14 22 -3 4 -1 8 5 8 6 0 18 14 27 32 9 18 23 38 30 46 8
7 14 19 14 27 0 7 3 15 8 17 8 4 58 86 87 143 11 22 23 42 26 45 10 10 114
225 112 232 -2 5 2 8 7 8 6 0 10 9 10 20 0 11 4 20 10 20 5 0 9 3 8 8 -1 8 17
58 52 137 27 61 39 98 34 106 -3 5 -1 9 3 9 5 0 14 19 21 42 7 24 20 66 28 93
8 28 17 65 19 84 3 18 8 38 11 43 4 5 8 26 10 45 2 19 5 42 8 51 3 9 7 36 10
60 4 23 9 61 12 85 18 121 26 261 25 427 -1 173 -4 211 -14 227 -4 6 -3 14 3
18 6 4 8 10 5 14 -2 5 -7 33 -10 62 -7 59 -12 100 -19 139 -3 14 -7 41 -10 60
-18 121 -85 394 -97 398 -5 2 -6 8 -3 14 4 5 2 20 -4 31 -6 12 -22 58 -37 102
-78 239 -183 465 -292 630 -142 215 -408 575 -511 693 -58 66 -151 149 -172
154 -20 4 -23 -942 -3 -989 7 -18 46 -100 87 -182 130 -262 174 -395 181 -541
2 -69 -8 -176 -19 -187 -28 -29 -1136 -37 -1164 -9 -2 3 -5 95 -6 206 0 110
-5 200 -9 200 -5 0 -5 5 -2 11 4 6 6 44 6 85 -1 41 -2 82 -2 92 1 57 0 196 -1
201 0 3 0 11 1 16 5 25 2 125 -3 134 -4 5 -3 12 2 14 9 6 7 71 -3 86 -3 6 -3
11 2 11 9 0 8 122 -1 145 -3 8 -2 15 3 15 5 0 7 15 5 33 -2 17 -5 258 -8 534
-5 536 -3 519 -53 571 -7 7 -13 17 -13 22 0 5 -6 15 -13 22 -7 7 -28 38 -47
68 -19 30 -40 61 -47 68 -7 7 -13 17 -13 22 0 15 -239 88 -445 137 -11 2 -63
7 -116 10 l-95 5 3 -278z"/>
</g>
</svg>
