<?xml version="1.0" standalone="no"?>
<!DOCTYPE svg PUBLIC "-//W3C//DTD SVG 20010904//EN"
 "http://www.w3.org/TR/2001/REC-SVG-20010904/DTD/svg10.dtd">
<svg version="1.0" xmlns="http://www.w3.org/2000/svg"
 width="700.000000pt" height="700.000000pt" viewBox="0 0 700.000000 700.000000"
 preserveAspectRatio="xMidYMid meet">
<metadata>
Created by potrace 1.11, written by Peter Selinger 2001-2013
</metadata>
<g transform="translate(0.000000,700.000000) scale(0.100000,-0.100000)"
fill="#000000" stroke="none">
<path d="M3298 6996 c-1 -2 -41 -6 -88 -10 -47 -3 -86 -6 -87 -6 -2 0 -3
-1410 -3 -3133 l0 -3133 -72 12 c-40 7 -86 14 -103 17 -56 9 -280 69 -289 78
-6 5 -17 9 -26 9 -20 0 -251 87 -263 99 -5 5 -9 650 -9 1480 l0 1471 -76 0
c-466 2 -676 0 -681 -9 -3 -5 -6 -557 -5 -1227 l0 -1218 -115 120 c-280 290
-478 605 -619 984 -47 127 -123 409 -137 510 -3 25 -8 61 -10 80 -3 19 -8 51
-11 70 -10 63 -13 503 -3 580 37 305 82 493 170 727 36 96 118 279 139 313 6
8 22 38 36 65 41 78 214 336 244 365 3 3 25 30 50 60 46 57 259 274 320 325
192 163 394 297 601 399 l97 47 0 369 1 369 -82 -30 c-1067 -393 -1891 -1313
-2171 -2424 -23 -94 -28 -115 -41 -190 -3 -16 -8 -41 -10 -55 -12 -58 -15 -75
-21 -129 -3 -31 -8 -65 -10 -76 -19 -99 -26 -556 -11 -710 8 -82 24 -207 33
-260 3 -16 7 -39 8 -50 2 -11 8 -45 15 -75 6 -30 13 -64 15 -75 17 -82 94
-350 115 -400 5 -11 28 -69 51 -130 118 -308 317 -644 552 -933 218 -267 578
-583 840 -737 9 -5 48 -29 85 -51 71 -43 291 -156 378 -194 83 -35 88 -37 150
-60 33 -12 76 -28 95 -35 98 -38 306 -95 455 -124 138 -28 152 -30 220 -37 33
-4 63 -8 66 -10 42 -24 762 -24 786 0 3 2 5 700 5 1550 l0 1546 1204 0 c663 0
1203 -3 1201 -7 -3 -5 -8 -30 -11 -56 -34 -254 -143 -586 -277 -843 -190 -368
-435 -662 -786 -945 -102 -82 -366 -244 -498 -305 l-72 -33 -1 -369 0 -369 61
22 c163 60 386 162 507 232 19 11 51 29 70 39 19 11 37 21 40 24 3 3 43 30 90
60 240 154 552 423 712 615 18 22 49 58 69 80 52 59 178 229 233 315 27 41 59
91 71 110 28 43 155 275 155 283 0 3 18 43 39 89 130 275 242 669 276 966 3
26 8 54 10 62 19 71 27 541 12 714 -18 203 -73 498 -127 671 -12 39 -24 81
-27 95 -18 79 -166 432 -232 553 -118 213 -183 317 -300 472 -158 210 -349
413 -541 575 -36 30 -67 57 -70 60 -3 3 -48 37 -100 76 -212 158 -403 270
-680 397 -53 24 -71 31 -206 82 l-61 24 0 -369 0 -369 76 -36 c116 -56 311
-171 410 -242 44 -32 160 -122 193 -150 42 -35 273 -266 315 -314 64 -75 185
-240 248 -340 77 -123 202 -373 239 -479 15 -41 31 -84 36 -95 23 -49 90 -310
109 -430 6 -33 12 -70 15 -82 l5 -23 -1204 0 -1203 0 0 1546 c0 850 -2 1547
-4 1549 -12 13 -567 32 -580 21z"/>
</g>
</svg>
